<svg xmlns="http://www.w3.org/2000/svg" viewBox="0 0 64 64" fill="none">
  <defs>
    <linearGradient id="g" x1="8" y1="8" x2="56" y2="56" gradientUnits="userSpaceOnUse">
      <stop stop-color="#2563eb"/>
      <stop offset="1" stop-color="#0f172a"/>
    </linearGradient>
  </defs>
  <rect x="4" y="4" width="56" height="56" rx="16" fill="url(#g)"/>
  <path d="M20 22c0-3.314 2.686-6 6-6h12c3.314 0 6 2.686 6 6v2h-5v-1a3 3 0 0 0-3-3H28a3 3 0 0 0-3 3v2h19l-3.2 20.8A4 4 0 0 1 36.85 49H27.15a4 4 0 0 1-3.95-3.2L20 25h5v-3Z" fill="#fff"/>
  <circle cx="28" cy="52" r="3" fill="#fff"/>
  <circle cx="37" cy="52" r="3" fill="#fff"/>
</svg>
